<svg  viewBox="0 0 80 63" fill="none" xmlns="http://www.w3.org/2000/svg">
<path d="M1.3055 8.02778C-0.43061 6.29166 -0.43061 3.48611 1.3055 1.75C3.04161 0.0138863 5.86106 0.0138863 7.59717 1.75L34.2638 28.4167C35.9999 30.1528 35.9999 32.9722 34.2638 34.7083L7.59717 61.375C5.86106 63.1111 3.04161 63.1111 1.3055 61.375C-0.43061 59.6389 -0.43061 56.8195 1.3055 55.0833L24.8194 31.5556L1.3055 8.02778ZM35.5555 53.7778H75.5555C78.0138 53.7778 79.9999 55.7639 79.9999 58.2222C79.9999 60.6806 78.0138 62.6667 75.5555 62.6667H35.5555C33.0972 62.6667 31.1111 60.6806 31.1111 58.2222C31.1111 55.7639 33.0972 53.7778 35.5555 53.7778Z" fill="#E8856A"/>
</svg>
